<mxfile host="app.diagrams.net" modified="2024-03-09T00:00:00Z" agent="5.0 (Macintosh; Intel Mac OS X 10_15_7) AppleWebKit/537.36 (KHTML, like Gecko) Chrome/97.0.4692.99 Safari/537.36" etag="aJtPS3Ypr-NQKdWTz3l-" version="13.5.3" type="device">
  <diagram name="Page-1" id="x6eRY8hHmNJJvgezfq1T">
    <mxGraphModel dx="940" dy="641" grid="1" gridSize="10" guides="1" tooltips="1" connect="1" arrows="1" fold="1" page="1" pageScale="1" pageWidth="827" pageHeight="1169" math="0" shadow="0">
      <root>
        <mxCell id="0"/>
        <mxCell id="1" parent="0"/>
        <mxCell id="BwP4rXw89q0j0m-mOuER-2" value="" style="rounded=0;whiteSpace=wrap;html=1;" vertex="1" connectable="0" parent="1">
          <mxGeometry x="270" y="90" width="100" height="60" as="geometry"/>
        </mxCell>
        <mxCell id="BwP4rXw89q0j0m-mOuER-3" value="" style="rounded=0;whiteSpace=wrap;html=1;" vertex="1" connectable="0" parent="1">
          <mxGeometry x="90" y="240" width="100" height="60" as="geometry"/>
        </mxCell>
        <mxCell id="BwP4rXw89q0j0m-mOuER-4" value="" style="rounded=0;whiteSpace=wrap;html=1;" vertex="1" connectable="0" parent="1">
          <mxGeometry x="270" y="240" width="100" height="60" as="geometry"/>
        </mxCell>
        <mxCell id="BwP4rXw89q0j0m-mOuER-5" value="" style="rounded=0;whiteSpace=wrap;html=1;" vertex="1" connectable="0" parent="1">
          <mxGeometry x="450" y="240" width="100" height="60" as="geometry"/>
        </mxCell>
        <mxCell id="BwP4rXw89q0j0m-mOuER-6" value="" style="rounded=0;whiteSpace=wrap;html=1;" vertex="1" connectable="0" parent="1">
          <mxGeometry x="630" y="240" width="100" height="60" as="geometry"/>
        </mxCell>
        <mxCell id="BwP4rXw89q0j0m-mOuER-7" value="" style="rounded=0;whiteSpace=wrap;html=1;" vertex="1" connectable="0" parent="1">
          <mxGeometry x="270" y="390" width="100" height="60" as="geometry"/>
        </mxCell>
        <mxCell id="BwP4rXw89q0j0m-mOuER-8" value="" style="rounded=0;whiteSpace=wrap;html=1;" vertex="1" connectable="0" parent="1">
          <mxGeometry x="90" y="540" width="100" height="60" as="geometry"/>
        </mxCell>
        <mxCell id="BwP4rXw89q0j0m-mOuER-9" value="" style="rounded=0;whiteSpace=wrap;html=1;" vertex="1" connectable="0" parent="1">
          <mxGeometry x="270" y="540" width="100" height="60" as="geometry"/>
        </mxCell>
        <mxCell id="BwP4rXw89q0j0m-mOuER-10" value="" style="rounded=0;whiteSpace=wrap;html=1;" vertex="1" connectable="0" parent="1">
          <mxGeometry x="450" y="540" width="100" height="60" as="geometry"/>
        </mxCell>
        <mxCell id="BwP4rXw89q0j0m-mOuER-11" value="" style="rounded=0;whiteSpace=wrap;html=1;" vertex="1" connectable="0" parent="1">
          <mxGeometry x="630" y="540" width="100" height="60" as="geometry"/>
        </mxCell>
        <mxCell id="BwP4rXw89q0j0m-mOuER-12" value="Game" style="rounded=0;whiteSpace=wrap;html=1;" vertex="1" connectable="0" parent="1">
          <mxGeometry x="90" y="390" width="100" height="60" as="geometry"/>
        </mxCell>
        <mxCell id="BwP4rXw89q0j0m-mOuER-13" value="Tower" style="rounded=0;whiteSpace=wrap;html=1;" vertex="1" connectable="0" parent="1">
          <mxGeometry x="450" y="90" width="100" height="60" as="geometry"/>
        </mxCell>
        <mxCell id="BwP4rXw89q0j0m-mOuER-14" value="Projectile" style="rounded=0;whiteSpace=wrap;html=1;" vertex="1" connectable="0" parent="1">
          <mxGeometry x="630" y="90" width="100" height="60" as="geometry"/>
        </mxCell>
        <mxCell id="BwP4rXw89q0j0m-mOuER-15" value="Player" style="rounded=0;whiteSpace=wrap;html=1;" vertex="1" connectable="0" parent="1">
          <mxGeometry x="90" y="90" width="100" height="60" as="geometry"/>
        </mxCell>
        <mxCell id="BwP4rXw89q0j0m-mOuER-16" value="Enemy" style="rounded=0;whiteSpace=wrap;html=1;" vertex="1" connectable="0" parent="1">
          <mxGeometry x="450" y="390" width="100" height="60" as="geometry"/>
        </mxCell>
        <mxCell id="BwP4rXw89q0j0m-mOuER-17" value="GameState" style="rounded=0;whiteSpace=wrap;html=1;" vertex="1" connectable="0" parent="1">
          <mxGeometry x="90" y="690" width="100" height="60" as="geometry"/>
        </mxCell>
        <mxCell id="BwP4rXw89q0j0m-mOuER-18" value="ControlMode" style="rounded=0;whiteSpace=wrap;html=1;" vertex="1" connectable="0" parent="1">
          <mxGeometry x="450" y="690" width="100" height="60" as="geometry"/>
        </mxCell>
        <mxCell id="BwP4rXw89q0j0m-mOuER-19" value="ONGOING" style="rounded=0;whiteSpace=wrap;html=1;" vertex="1" connectable="0" parent="1">
          <mxGeometry x="270" y="690" width="100" height="60" as="geometry"/>
        </mxCell>
        <mxCell id="BwP4rXw89q0j0m-mOuER-20" value="AUTOMATIC" style="rounded=0;whiteSpace=wrap;html=1;" vertex="1" connectable="0" parent="1">
          <mxGeometry x="630" y="690" width="100" height="60" as="geometry"/>
        </mxCell>
        <mxCell id="BwP4rXw89q0j0m-mOuER-21" value="PAUSED" style="rounded=0;whiteSpace=wrap;html=1;" vertex="1" connectable="0" parent="1">
          <mxGeometry x="270" y="840" width="100" height="60" as="geometry"/>
        </mxCell>
        <mxCell id="BwP4rXw89q0j0m-mOuER-22" value="MANUAL" style="rounded=0;whiteSpace=wrap;html=1;" vertex="1" connectable="0" parent="1">
          <mxGeometry x="630" y="840" width="100" height="60" as="geometry"/>
        </mxCell>
        <mxCell id="BwP4rXw89q0j0m-mOuER-23" value="ENDED" style="rounded=0;whiteSpace=wrap;html=1;" vertex="1" connectable="0" parent="1">
          <mxGeometry x="270" y="990" width="100" height="60" as="geometry"/>
        </mxCell>
        <mxCell id="BwP4rXw89q0j0m-mOuER-24" value="" style="edgeStyle=orthogonalEdgeStyle;rounded=0;orthogonalLoop=1;jettySize=auto;html=1;" edge="1" parent="1" source="BwP4rXw89q0j0m-mOuER-15" target="BwP4rXw89q0j0m-mOuER-1">
          <mxGeometry relative="1" as="geometry"/>
        </mxCell>
        <mxCell id="BwP4rXw89q0j0m-mOuER-25" value="" style="edgeStyle=orthogonalEdgeStyle;rounded=0;orthogonalLoop=1;jettySize=auto;html=1;" edge="1" parent="1" source="BwP4rXw89q0j0m-mOuER-16" target="BwP4rXw89q0j0m-mOuER-1">
          <mxGeometry relative="1" as="geometry"/>
        </mxCell>
        <mxCell id="BwP4rXw89q0j0m-mOuER-26" value="" style="edgeStyle=orthogonalEdgeStyle;rounded=0;orthogonalLoop=1;jettySize=auto;html=1;" edge="1" parent="1" source="BwP4rXw89q0j0m-mOuER-12" target="BwP4rXw89q0j0m-mOuER-1">
          <mxGeometry relative="1" as="geometry"/>
        </mxCell>
        <mxCell id="BwP4rXw89q0j0m-mOuER-27" value="" style="edgeStyle=orthogonalEdgeStyle;rounded=0;orthogonalLoop=1;jettySize=auto;html=1;" edge="1" parent="1" source="BwP4rXw89q0j0m-mOuER-13" target="BwP4rXw89q0j0m-mOuER-1">
          <mxGeometry relative="1" as="geometry"/>
        </mxCell>
        <mxCell id="BwP4rXw89q0j0m-mOuER-28" value="" style="edgeStyle=orthogonalEdgeStyle;rounded=0;orthogonalLoop=1;jettySize=auto;html=1;" edge="1" parent="1" source="BwP4rXw89q0j0m-mOuER-14" target="BwP4rXw89q0j0m-mOuER-1">
          <mxGeometry relative="1" as="geometry"/>
        </mxCell>
        <mxCell id="BwP4rXw89q0j0m-mOuER-29" value="" style="edgeStyle=orthogonalEdgeStyle;rounded=0;orthogonalLoop=1;jettySize=auto;html=1;" edge="1" parent="1" source="BwP4rXw89q0j0m-mOuER-17" target="BwP4rXw89q0j0m-mOuER-1">
          <mxGeometry relative="1" as="geometry"/>
        </mxCell>
        <mxCell id="BwP4rXw89q0j0m-mOuER-30" value="" style="edgeStyle=orthogonalEdgeStyle;rounded=0;orthogonalLoop=1;jettySize=auto;html=1;" edge="1" parent="1" source="BwP4rXw89q0j0m-mOuER-18" target="BwP4rXw89q0j0m-mOuER-1">
          <mxGeometry relative="1" as="geometry"/>
        </mxCell>
        <mxCell id="BwP4rXw89q0j0m-mOuER-31" value="" style="edgeStyle=orthogonalEdgeStyle;rounded=0;orthogonalLoop=1;jettySize=auto;html=1;" edge="1" parent="1" source="BwP4rXw89q0j0m-mOuER-19" target="BwP4rXw89q0j0m-mOuER-17">
          <mxGeometry relative="1" as="geometry"/>
        </mxCell>
        <mxCell id="BwP4rXw89q0j0m-mOuER-32" value="" style="edgeStyle=orthogonalEdgeStyle;rounded=0;orthogonalLoop=1;jettySize=auto;html=1;" edge="1" parent="1" source="BwP4rXw89q0j0m-mOuER-20" target="BwP4rXw89q0j0m-mOuER-18">
          <mxGeometry relative="1" as="geometry"/>
        </mxCell>
        <mxCell id="BwP4rXw89q0j0m-mOuER-33" value="" style="edgeStyle=orthogonalEdgeStyle;rounded=0;orthogonalLoop=1;jettySize=auto;html=1;" edge="1" parent="1" source="BwP4rXw89q0j0m-mOuER-21" target="BwP4rXw89q0j0m-mOuER-17">
          <mxGeometry relative="1" as="geometry"/>
        </mxCell>
        <mxCell id="BwP4rXw89q0j0m-mOuER-34" value="" style="edgeStyle=orthogonalEdgeStyle;rounded=0;orthogonalLoop=1;jettySize=auto;html=1;" edge="1" parent="1" source="BwP4rXw89q0j0m-mOuER-22" target="BwP4rXw89q0j0m-mOuER-18">
          <mxGeometry relative="1" as="geometry"/>
        </mxCell>
        <mxCell id="BwP4rXw89q0j0m-mOuER-35" value="" style="edgeStyle=orthogonalEdgeStyle;rounded=0;orthogonalLoop=1;jettySize=auto;html=1;" edge="1" parent="1" source="BwP4rXw89q0j0m-mOuER-23" target="BwP4rXw89q0j0m-mOuER-17">
          <mxGeometry relative="1" as="geometry"/>
        </mxCell>
        <mxCell id="BwP4rXw89q0j0m-mOuER-36" value="" style="edgeStyle=orthogonalEdgeStyle;rounded=0;orthogonalLoop=1;jettySize=auto;html=1;" edge="1" parent="1" source="BwP4rXw89q0j0m-mOuER-24" target="BwP4rXw89q0j0m-mOuER-1">
          <mxGeometry relative="1" as="geometry"/>
        </mxCell>
        <mxCell id="BwP4rXw89q0j0m-mOuER-37" value="" style="edgeStyle=orthogonalEdgeStyle;rounded=0;orthogonalLoop=1;jettySize=auto;html=1;" edge="1" parent="1" source="BwP4rXw89q0j0m-mOuER-25" target="BwP4rXw89q0j0m-mOuER-1">
          <mxGeometry relative="1" as="geometry"/>
        </mxCell>
        <mxCell id="BwP4rXw89q0j0m-mOuER-38" value="" style="edgeStyle=orthogonalEdgeStyle;rounded=0;orthogonalLoop=1;jettySize=auto;html=1;" edge="1" parent="1" source="BwP4rXw89q0j0m-mOuER-26" target="BwP4rXw89q0j0m-mOuER-1">
          <mxGeometry relative="1" as="geometry"/>
        </mxCell>
        <mxCell id="BwP4rXw89q0j0m-mOuER-39" value="" style="edgeStyle=orthogonalEdgeStyle;rounded=0;orthogonalLoop=1;jettySize=auto;html=1;" edge="1" parent="1" source="BwP4rXw89q0j0m-mOuER-27" target="BwP4rXw89q0j0m-mOuER-1">
          <mxGeometry relative="1" as="geometry"/>
        </mxCell>
        <mxCell id="BwP4rXw89q0j0m-mOuER-40" value="" style="edgeStyle=orthogonalEdgeStyle;rounded=0;orthogonalLoop=1;jettySize=auto;html=1;" edge="1" parent="1" source="BwP4rXw89q0j0m-mOuER-28" target="BwP4rXw89q0j0m-mOuER-1">
          <mxGeometry relative="1" as="geometry"/>
        </mxCell>
      </root>
    </mxGraphModel>
  </diagram>
</mxfile>
